<mxfile host="Electron" modified="2023-08-09T21:13:27.528Z" agent="Mozilla/5.0 (Windows NT 10.0; Win64; x64) AppleWebKit/537.36 (KHTML, like Gecko) draw.io/21.6.1 Chrome/112.0.5615.204 Electron/24.6.1 Safari/537.36" etag="pPn02My1efDnClz8z0rb" version="21.6.1" type="device">
  <diagram id="C5RBs43oDa-KdzZeNtuy" name="Page-1">
    <mxGraphModel dx="1863" dy="1783" grid="1" gridSize="10" guides="1" tooltips="1" connect="1" arrows="1" fold="1" page="1" pageScale="1" pageWidth="827" pageHeight="1169" math="0" shadow="0">
      <root>
        <mxCell id="WIyWlLk6GJQsqaUBKTNV-0" />
        <mxCell id="WIyWlLk6GJQsqaUBKTNV-1" parent="WIyWlLk6GJQsqaUBKTNV-0" />
        <mxCell id="PtvGfc8u3fFPzmpzfyYF-7" value="MedicinalProductDefinition&amp;nbsp;&lt;br&gt;&lt;i style=&quot;border-color: var(--border-color);&quot;&gt;Stelbat Tablets, 20mg&lt;/i&gt;" style="rounded=1;whiteSpace=wrap;html=1;fontSize=12;glass=0;strokeWidth=1;shadow=0;fillColor=#ffe699;" parent="WIyWlLk6GJQsqaUBKTNV-1" vertex="1">
          <mxGeometry x="9" y="-90" width="156" height="40" as="geometry" />
        </mxCell>
        <mxCell id="PtvGfc8u3fFPzmpzfyYF-18" value="PlanDefinition&lt;br&gt;&lt;i&gt;Manufacturing Process&lt;/i&gt;" style="rounded=1;whiteSpace=wrap;html=1;fontSize=12;glass=0;strokeWidth=1;shadow=0;fillColor=#cfcfcf;strokeColor=#82b366;" parent="WIyWlLk6GJQsqaUBKTNV-1" vertex="1">
          <mxGeometry x="20" y="-10" width="130" height="40" as="geometry" />
        </mxCell>
        <mxCell id="Kh6UWCqLEouyqFOK7ntM-0" value="Action&lt;i&gt;&lt;br&gt;Step 1, Mixing&lt;/i&gt;" style="rounded=1;whiteSpace=wrap;html=1;fontSize=12;glass=0;strokeWidth=1;shadow=0;fillColor=#dfdfdf;strokeColor=#82b366;" parent="WIyWlLk6GJQsqaUBKTNV-1" vertex="1">
          <mxGeometry x="37" y="30" width="100" height="70" as="geometry" />
        </mxCell>
        <mxCell id="Kh6UWCqLEouyqFOK7ntM-1" value="Action&lt;br&gt;&lt;i&gt;Step N, Drying&lt;/i&gt;" style="rounded=1;whiteSpace=wrap;html=1;fontSize=12;glass=0;strokeWidth=1;shadow=0;fillColor=#dfdfdf;strokeColor=#82b366;" parent="WIyWlLk6GJQsqaUBKTNV-1" vertex="1">
          <mxGeometry x="37" y="100" width="100" height="70" as="geometry" />
        </mxCell>
        <mxCell id="Kh6UWCqLEouyqFOK7ntM-8" value="" style="endArrow=classic;html=1;rounded=0;entryX=0.5;entryY=1;entryDx=0;entryDy=0;" parent="WIyWlLk6GJQsqaUBKTNV-1" target="PtvGfc8u3fFPzmpzfyYF-7" edge="1">
          <mxGeometry width="50" height="50" relative="1" as="geometry">
            <mxPoint x="87" y="-10" as="sourcePoint" />
            <mxPoint x="250" y="50" as="targetPoint" />
          </mxGeometry>
        </mxCell>
        <mxCell id="Kh6UWCqLEouyqFOK7ntM-28" value="subject" style="edgeLabel;html=1;align=center;verticalAlign=middle;resizable=0;points=[];" parent="Kh6UWCqLEouyqFOK7ntM-8" vertex="1" connectable="0">
          <mxGeometry x="0.2377" y="-3" relative="1" as="geometry">
            <mxPoint x="-3" y="5" as="offset" />
          </mxGeometry>
        </mxCell>
        <mxCell id="Kh6UWCqLEouyqFOK7ntM-25" value="Ingredient" style="rounded=1;whiteSpace=wrap;html=1;fontSize=12;glass=0;strokeWidth=1;shadow=0;fillColor=#f8cecc;strokeColor=#b85450;" parent="WIyWlLk6GJQsqaUBKTNV-1" vertex="1">
          <mxGeometry x="230" y="-60" width="120" height="40" as="geometry" />
        </mxCell>
        <mxCell id="Kh6UWCqLEouyqFOK7ntM-26" value="for" style="endArrow=classic;html=1;rounded=0;exitX=0;exitY=0.5;exitDx=0;exitDy=0;entryX=1;entryY=0.5;entryDx=0;entryDy=0;" parent="WIyWlLk6GJQsqaUBKTNV-1" source="Kh6UWCqLEouyqFOK7ntM-25" target="PtvGfc8u3fFPzmpzfyYF-7" edge="1">
          <mxGeometry x="-0.3333" y="-2" width="50" height="50" relative="1" as="geometry">
            <mxPoint x="461.43000000000006" y="-50" as="sourcePoint" />
            <mxPoint x="370" y="-40" as="targetPoint" />
            <mxPoint as="offset" />
          </mxGeometry>
        </mxCell>
        <mxCell id="IEeFdyCGopTc3gh3-DFE-2" value="SubstanceDefinition&lt;br&gt;&lt;i style=&quot;border-color: var(--border-color);&quot;&gt;Stelbatolol&lt;/i&gt;" style="rounded=1;whiteSpace=wrap;html=1;fontSize=12;glass=0;strokeWidth=1;shadow=0;fillColor=#c1f0da;strokeColor=#9ebda2;" parent="WIyWlLk6GJQsqaUBKTNV-1" vertex="1">
          <mxGeometry x="413" y="-60" width="150" height="40" as="geometry" />
        </mxCell>
        <mxCell id="IEeFdyCGopTc3gh3-DFE-3" value="" style="endArrow=classic;html=1;rounded=0;exitX=1;exitY=0.5;exitDx=0;exitDy=0;entryX=0;entryY=0.5;entryDx=0;entryDy=0;" parent="WIyWlLk6GJQsqaUBKTNV-1" source="Kh6UWCqLEouyqFOK7ntM-25" target="IEeFdyCGopTc3gh3-DFE-2" edge="1">
          <mxGeometry x="-0.3333" y="-2" width="50" height="50" relative="1" as="geometry">
            <mxPoint x="490" y="-110" as="sourcePoint" />
            <mxPoint x="640" y="-120" as="targetPoint" />
            <mxPoint as="offset" />
          </mxGeometry>
        </mxCell>
        <mxCell id="uysCGEMOpJlBYejoTfUB-0" value="DeviceDefinition&lt;br&gt;&lt;i&gt;Mixer&lt;/i&gt;" style="rounded=1;whiteSpace=wrap;html=1;fontSize=12;glass=0;strokeWidth=1;shadow=0;fillColor=#dfdfdf;strokeColor=#82b366;" parent="WIyWlLk6GJQsqaUBKTNV-1" vertex="1">
          <mxGeometry x="-200" y="45" width="140" height="40" as="geometry" />
        </mxCell>
        <mxCell id="uysCGEMOpJlBYejoTfUB-3" value="DeviceDefinition&lt;br&gt;&lt;i&gt;Dryer&lt;/i&gt;" style="rounded=1;whiteSpace=wrap;html=1;fontSize=12;glass=0;strokeWidth=1;shadow=0;fillColor=#dfdfdf;strokeColor=#82b366;" parent="WIyWlLk6GJQsqaUBKTNV-1" vertex="1">
          <mxGeometry x="-200" y="100" width="140" height="40" as="geometry" />
        </mxCell>
        <mxCell id="uysCGEMOpJlBYejoTfUB-7" value="participant" style="endArrow=classic;html=1;rounded=0;exitX=0;exitY=0.5;exitDx=0;exitDy=0;entryX=1;entryY=0.5;entryDx=0;entryDy=0;" parent="WIyWlLk6GJQsqaUBKTNV-1" source="Kh6UWCqLEouyqFOK7ntM-0" target="uysCGEMOpJlBYejoTfUB-0" edge="1">
          <mxGeometry width="50" height="50" relative="1" as="geometry">
            <mxPoint x="157" y="70" as="sourcePoint" />
            <mxPoint x="200" y="70" as="targetPoint" />
          </mxGeometry>
        </mxCell>
        <mxCell id="uysCGEMOpJlBYejoTfUB-8" value="participant" style="endArrow=classic;html=1;rounded=0;exitX=0;exitY=0.5;exitDx=0;exitDy=0;entryX=1;entryY=0.5;entryDx=0;entryDy=0;" parent="WIyWlLk6GJQsqaUBKTNV-1" source="Kh6UWCqLEouyqFOK7ntM-1" target="uysCGEMOpJlBYejoTfUB-3" edge="1">
          <mxGeometry width="50" height="50" relative="1" as="geometry">
            <mxPoint x="47" y="60" as="sourcePoint" />
            <mxPoint x="-50" y="60" as="targetPoint" />
          </mxGeometry>
        </mxCell>
        <mxCell id="uysCGEMOpJlBYejoTfUB-9" value="SubstanceDefinition - &lt;i&gt;starting&lt;/i&gt;" style="rounded=1;whiteSpace=wrap;html=1;fontSize=12;glass=0;strokeWidth=1;shadow=0;fillColor=#c1f0da;strokeColor=#9ebda2;" parent="WIyWlLk6GJQsqaUBKTNV-1" vertex="1">
          <mxGeometry x="280" y="30" width="225.5" height="40" as="geometry" />
        </mxCell>
        <mxCell id="uysCGEMOpJlBYejoTfUB-10" value="SubstanceDefinition - &lt;i&gt;intermediate&lt;/i&gt;" style="rounded=1;whiteSpace=wrap;html=1;fontSize=12;glass=0;strokeWidth=1;shadow=0;fillColor=#c1f0da;strokeColor=#9ebda2;" parent="WIyWlLk6GJQsqaUBKTNV-1" vertex="1">
          <mxGeometry x="280" y="90" width="225.5" height="40" as="geometry" />
        </mxCell>
        <mxCell id="uysCGEMOpJlBYejoTfUB-11" value="participant -&amp;nbsp;&lt;i&gt;input&lt;/i&gt;&amp;nbsp;" style="endArrow=classic;html=1;rounded=0;entryX=0;entryY=0.5;entryDx=0;entryDy=0;exitX=1;exitY=0.25;exitDx=0;exitDy=0;" parent="WIyWlLk6GJQsqaUBKTNV-1" source="Kh6UWCqLEouyqFOK7ntM-0" target="uysCGEMOpJlBYejoTfUB-9" edge="1">
          <mxGeometry width="50" height="50" relative="1" as="geometry">
            <mxPoint x="147" y="55" as="sourcePoint" />
            <mxPoint x="235" y="45" as="targetPoint" />
          </mxGeometry>
        </mxCell>
        <mxCell id="uysCGEMOpJlBYejoTfUB-16" value="participant -&amp;nbsp;&lt;i&gt;input&lt;/i&gt;&amp;nbsp;" style="endArrow=classic;html=1;rounded=0;entryX=0;entryY=0.75;entryDx=0;entryDy=0;exitX=1;exitY=0.5;exitDx=0;exitDy=0;" parent="WIyWlLk6GJQsqaUBKTNV-1" source="Kh6UWCqLEouyqFOK7ntM-1" target="uysCGEMOpJlBYejoTfUB-10" edge="1">
          <mxGeometry width="50" height="50" relative="1" as="geometry">
            <mxPoint x="147" y="72" as="sourcePoint" />
            <mxPoint x="243" y="75" as="targetPoint" />
          </mxGeometry>
        </mxCell>
        <mxCell id="uysCGEMOpJlBYejoTfUB-17" value="participant - &lt;i&gt;output&lt;/i&gt;" style="endArrow=classic;html=1;rounded=0;entryX=0;entryY=0.25;entryDx=0;entryDy=0;exitX=1;exitY=0.5;exitDx=0;exitDy=0;" parent="WIyWlLk6GJQsqaUBKTNV-1" source="Kh6UWCqLEouyqFOK7ntM-0" target="uysCGEMOpJlBYejoTfUB-10" edge="1">
          <mxGeometry width="50" height="50" relative="1" as="geometry">
            <mxPoint x="147" y="77" as="sourcePoint" />
            <mxPoint x="243" y="80" as="targetPoint" />
          </mxGeometry>
        </mxCell>
        <mxCell id="uysCGEMOpJlBYejoTfUB-22" value="participant - &lt;i&gt;output&lt;/i&gt;" style="endArrow=classic;html=1;rounded=0;exitX=1;exitY=0.75;exitDx=0;exitDy=0;" parent="WIyWlLk6GJQsqaUBKTNV-1" source="Kh6UWCqLEouyqFOK7ntM-1" edge="1">
          <mxGeometry width="50" height="50" relative="1" as="geometry">
            <mxPoint x="60" y="151.25000000000023" as="sourcePoint" />
            <mxPoint x="544" y="-21.25" as="targetPoint" />
            <Array as="points">
              <mxPoint x="544" y="148.75" />
            </Array>
          </mxGeometry>
        </mxCell>
        <mxCell id="uysCGEMOpJlBYejoTfUB-25" value="&lt;i&gt;vessel capacity, temperature&lt;/i&gt;" style="rounded=1;whiteSpace=wrap;html=1;fontSize=12;glass=0;strokeWidth=1;shadow=0;fillColor=#dfdfdf;strokeColor=#82b366;" parent="WIyWlLk6GJQsqaUBKTNV-1" vertex="1">
          <mxGeometry x="-50" y="220" width="130" height="40" as="geometry" />
        </mxCell>
        <mxCell id="uysCGEMOpJlBYejoTfUB-26" value="parameters" style="endArrow=classic;html=1;rounded=0;exitX=0.5;exitY=1;exitDx=0;exitDy=0;entryX=0.5;entryY=0;entryDx=0;entryDy=0;" parent="WIyWlLk6GJQsqaUBKTNV-1" source="Kh6UWCqLEouyqFOK7ntM-1" target="uysCGEMOpJlBYejoTfUB-25" edge="1">
          <mxGeometry width="50" height="50" relative="1" as="geometry">
            <mxPoint x="47" y="145" as="sourcePoint" />
            <mxPoint x="-30" y="145" as="targetPoint" />
          </mxGeometry>
        </mxCell>
        <mxCell id="uysCGEMOpJlBYejoTfUB-27" value="&lt;i&gt;pH, water content&lt;/i&gt;" style="rounded=1;whiteSpace=wrap;html=1;fontSize=12;glass=0;strokeWidth=1;shadow=0;fillColor=#dfdfdf;strokeColor=#82b366;" parent="WIyWlLk6GJQsqaUBKTNV-1" vertex="1">
          <mxGeometry x="100" y="220" width="130" height="40" as="geometry" />
        </mxCell>
        <mxCell id="uysCGEMOpJlBYejoTfUB-28" value="output criteria" style="endArrow=classic;html=1;rounded=0;exitX=0.5;exitY=1;exitDx=0;exitDy=0;entryX=0.5;entryY=0;entryDx=0;entryDy=0;" parent="WIyWlLk6GJQsqaUBKTNV-1" source="Kh6UWCqLEouyqFOK7ntM-1" target="uysCGEMOpJlBYejoTfUB-27" edge="1">
          <mxGeometry x="0.0077" width="50" height="50" relative="1" as="geometry">
            <mxPoint x="97" y="180" as="sourcePoint" />
            <mxPoint x="195" y="230" as="targetPoint" />
            <mxPoint as="offset" />
          </mxGeometry>
        </mxCell>
        <mxCell id="uysCGEMOpJlBYejoTfUB-30" value="DeviceDefinition&lt;br&gt;&lt;i&gt;Vessel&lt;/i&gt;" style="rounded=1;whiteSpace=wrap;html=1;fontSize=12;glass=0;strokeWidth=1;shadow=0;fillColor=#dfdfdf;strokeColor=#82b366;" parent="WIyWlLk6GJQsqaUBKTNV-1" vertex="1">
          <mxGeometry x="-200" y="-10" width="140" height="40" as="geometry" />
        </mxCell>
        <mxCell id="uysCGEMOpJlBYejoTfUB-31" value="participant" style="endArrow=classic;html=1;rounded=0;exitX=0;exitY=0.5;exitDx=0;exitDy=0;entryX=1;entryY=0.5;entryDx=0;entryDy=0;" parent="WIyWlLk6GJQsqaUBKTNV-1" source="PtvGfc8u3fFPzmpzfyYF-18" target="uysCGEMOpJlBYejoTfUB-30" edge="1">
          <mxGeometry width="50" height="50" relative="1" as="geometry">
            <mxPoint x="47" y="75" as="sourcePoint" />
            <mxPoint x="-30" y="80" as="targetPoint" />
          </mxGeometry>
        </mxCell>
      </root>
    </mxGraphModel>
  </diagram>
</mxfile>
